STARTFONT 2.1
FONT -DEC-Miriam-Bold-O-Normal--33-240-100-100-P-184-ISO8859-8
SIZE 24 100 100
FONTBOUNDINGBOX 36 34 0 -7

STARTPROPERTIES 26
FONTNAME_REGISTRY ""
FAMILY_NAME "Miriam"
FOUNDRY "DEC"
WEIGHT_NAME "Bold"
SLANT "O"
SETWIDTH_NAME "Normal"
ADD_STYLE_NAME ""
PIXEL_SIZE 33
RESOLUTION_X 100
RESOLUTION_Y 100
SPACING "P"
AVERAGE_WIDTH 184
CHARSET_REGISTRY "ISO8859"
CHARSET_ENCODING "8"
CHARSET_COLLECTIONS "ASCII ISO8859-8 "
FULL_NAME "Miriam Bold Oblique"
COPYRIGHT "Digital Israel"
CAP_HEIGHT 23
X_HEIGHT 18
_DEC_DEVICE_FONTNAMES "PS=Miriam-BoldOblique-ISOLatinHebrew"
QUAD_WIDTH 18
POINT_SIZE 240
WEIGHT 10
DEFAULT_CHAR 0
FONT_DESCENT 7
FONT_ASCENT 27
ENDPROPERTIES

CHARS 152

STARTCHAR space
ENCODING 32
SWIDTH 300 0
DWIDTH 10 0
BBX 1 1 0 0
BITMAP
00
ENDCHAR

STARTCHAR exclam
ENCODING 33
SWIDTH 180 0
DWIDTH 6 0
BBX 7 23 2 0
BITMAP
1E
1E
1E
1C
1C
1C
3C
3C
3C
38
38
78
78
70
70
70
00
00
F0
F0
F0
F0
F0
ENDCHAR

STARTCHAR quotedbl
ENCODING 34
SWIDTH 390 0
DWIDTH 13 0
BBX 11 9 5 14
BITMAP
79E0
79E0
71C0
71C0
71C0
6180
E380
E380
E380
ENDCHAR

STARTCHAR numbersign
ENCODING 35
SWIDTH 570 0
DWIDTH 19 0
BBX 19 23 2 0
BITMAP
006180
006180
00E380
00C300
00C300
01C700
018600
3FFFE0
3FFFE0
030C00
030C00
061800
061800
FFFF80
FFFF80
0C3000
0C3000
1C7000
186000
186000
38E000
30C000
30C000
ENDCHAR

STARTCHAR dollar
ENCODING 36
SWIDTH 540 0
DWIDTH 18 0
BBX 18 31 2 -4
BITMAP
003C00
003C00
003800
003800
00FDC0
03FFC0
07FFC0
0F8F80
0F0780
1E0780
1E0000
1E0000
1F0000
0FC000
0FF000
07FC00
03FE00
00FE00
003F00
001F00
780F00
780F00
781F00
7C3E00
FFFE00
FFFC00
EFF000
03C000
038000
078000
078000
ENDCHAR

STARTCHAR percent
ENCODING 37
SWIDTH 810 0
DWIDTH 27 0
BBX 23 23 4 0
BITMAP
0F8070
3FC0E0
7FE0E0
79E1C0
F0E380
E0E380
E0E700
F1C700
FFCE00
7F9C00
3E1C00
003800
0070F0
0073FC
00E7FE
00C71E
01CE0E
038E0E
038E0E
070F1C
0E0FFC
0E07F8
1C03E0
ENDCHAR

STARTCHAR ampersand
ENCODING 38
SWIDTH 690 0
DWIDTH 23 0
BBX 22 23 2 0
BITMAP
00FC00
01FE00
03FF00
078F00
070F00
0F0F00
0F0E00
0F9E00
07FC00
07F83C
03F07C
07F0FC
1FF9FC
3E7DE0
783FC0
F83F80
F01F80
F03FC0
F87FC0
7FFBE0
7FF1F0
3FE0E0
0F8080
ENDCHAR

STARTCHAR quoteright
ENCODING 39
SWIDTH 180 0
DWIDTH 6 0
BBX 6 10 3 13
BITMAP
3C
3C
3C
3C
3C
18
18
30
70
E0
ENDCHAR

STARTCHAR parenleft
ENCODING 40
SWIDTH 360 0
DWIDTH 12 0
BBX 12 29 2 -5
BITMAP
0010
0030
00F0
01F0
03F0
07E0
0FC0
0F80
1F00
3E00
3C00
7C00
7800
7800
F800
F800
F800
F800
F800
7800
7C00
7C00
3E00
3F00
1F00
0F00
0700
0300
0100
ENDCHAR

STARTCHAR parenright
ENCODING 41
SWIDTH 360 0
DWIDTH 12 0
BBX 11 29 3 -5
BITMAP
1000
1800
1C00
1E00
1F00
1F80
0F80
07C0
03C0
03E0
01E0
01E0
01E0
01E0
01E0
03E0
03C0
07C0
0780
0F80
1F00
3E00
7E00
FC00
F800
F000
E000
C000
8000
ENDCHAR

STARTCHAR asterisk
ENCODING 42
SWIDTH 360 0
DWIDTH 12 0
BBX 10 9 5 14
BITMAP
1100
7380
3F00
1E40
FFC0
9E00
3E00
7700
2400
ENDCHAR

STARTCHAR plus
ENCODING 43
SWIDTH 630 0
DWIDTH 21 0
BBX 17 17 4 3
BITMAP
00E000
00E000
00E000
00E000
00E000
00C000
00C000
FFFF80
FFFF80
FFFF80
018000
018000
038000
038000
038000
038000
038000
ENDCHAR

STARTCHAR comma
ENCODING 44
SWIDTH 270 0
DWIDTH 9 0
BBX 5 10 2 -5
BITMAP
78
78
78
78
78
18
18
38
F0
E0
ENDCHAR

STARTCHAR minus
ENCODING 45
SWIDTH 630 0
DWIDTH 21 0
BBX 16 3 5 10
BITMAP
FFFF
FFFF
FFFF
ENDCHAR

STARTCHAR period
ENCODING 46
SWIDTH 270 0
DWIDTH 9 0
BBX 4 5 3 0
BITMAP
F0
F0
F0
F0
F0
ENDCHAR

STARTCHAR slash
ENCODING 47
SWIDTH 570 0
DWIDTH 19 0
BBX 22 29 0 -6
BITMAP
00001C
000018
000038
000070
000060
0000E0
0001C0
000180
000380
000700
000600
000E00
001C00
001800
003800
007000
006000
00E000
01C000
018000
038000
070000
060000
0E0000
1C0000
380000
300000
700000
E00000
ENDCHAR

STARTCHAR zero
ENCODING 48
SWIDTH 540 0
DWIDTH 18 0
BBX 18 23 2 0
BITMAP
007800
03FE00
07FF00
0FFF80
1F8F80
1E07C0
3C03C0
3C03C0
3C03C0
7807C0
7807C0
780780
F80780
F80780
F00F80
F00F00
F00F00
781E00
7C7E00
7FFC00
3FF800
1FF000
07C000
ENDCHAR

STARTCHAR one
ENCODING 49
SWIDTH 540 0
DWIDTH 18 0
BBX 10 23 6 0
BITMAP
3FC0
3FC0
3FC0
3FC0
0780
0780
0780
0780
0F00
0F00
0F00
0F00
0F00
0F00
1E00
1E00
1E00
1E00
1E00
FF80
FF80
FF80
FF80
ENDCHAR

STARTCHAR two
ENCODING 50
SWIDTH 540 0
DWIDTH 18 0
BBX 18 23 2 0
BITMAP
007C00
01FF00
03FF80
07FF80
0F87C0
0F03C0
1E03C0
1E07C0
000780
000F80
001F00
003E00
007C00
00F800
01F000
07E000
0F8F00
1F0F00
3E0F00
7FFE00
FFFE00
FFFE00
FFFE00
ENDCHAR

STARTCHAR three
ENCODING 51
SWIDTH 540 0
DWIDTH 18 0
BBX 16 23 2 0
BITMAP
00F0
03FC
07FE
0FFF
1F1F
1E0F
000F
000E
001E
01FC
01F8
01FC
003E
001E
001F
001F
F01F
F03E
F87E
7FFC
7FF8
3FF0
0FC0
ENDCHAR

STARTCHAR four
ENCODING 52
SWIDTH 540 0
DWIDTH 18 0
BBX 18 23 2 0
BITMAP
000F80
001F80
003F80
007F00
00FF00
01FF00
03EF00
03CF00
078E00
0F0E00
1E1E00
3C1E00
7C1E00
F81E00
FFFFC0
FFFFC0
FFFFC0
003C00
003C00
01FF00
01FF00
01FF00
01FF00
ENDCHAR

STARTCHAR five
ENCODING 53
SWIDTH 540 0
DWIDTH 18 0
BBX 18 23 2 0
BITMAP
03FFC0
03FFC0
07FFC0
07FFC0
0F0000
0F0000
0E0000
1E7800
1FFE00
1FFF00
3FFF80
3E0F80
0C07C0
0007C0
0007C0
0007C0
F00780
F00F80
F83F00
7FFE00
7FFC00
3FF800
0FE000
ENDCHAR

STARTCHAR six
ENCODING 54
SWIDTH 540 0
DWIDTH 18 0
BBX 16 23 3 0
BITMAP
003E
007C
00F8
01F0
03E0
03C0
0780
0F00
1FF0
3FFC
3FFE
7C1F
780F
F00F
F00F
F00F
F00F
F01E
F83E
7FFC
7FF8
3FF0
0F80
ENDCHAR

STARTCHAR seven
ENCODING 55
SWIDTH 540 0
DWIDTH 18 0
BBX 17 23 4 0
BITMAP
3FFF80
3FFF80
3FFF80
7FFF00
780F00
781E00
781E00
783C00
007C00
007800
00F000
01F000
01E000
03C000
07C000
078000
0F8000
0F0000
1E0000
3E0000
3C0000
780000
F80000
ENDCHAR

STARTCHAR eight
ENCODING 56
SWIDTH 540 0
DWIDTH 18 0
BBX 17 23 2 0
BITMAP
007800
01FE00
07FF00
0FFF80
0F0F80
1E0780
1E0780
1E0F80
0F1F00
0FFE00
07FC00
1FFE00
3E1F00
7C0F00
780F80
F80F80
F00F80
F01F00
F83F00
7FFE00
7FFC00
3FF800
0FE000
ENDCHAR

STARTCHAR nine
ENCODING 57
SWIDTH 540 0
DWIDTH 18 0
BBX 17 23 4 0
BITMAP
01F000
0FFC00
1FFE00
3FFF00
7E1F00
780F80
F80F80
F00F80
F00F80
F00F00
F81F00
FC3E00
7FFE00
7FFC00
0FF800
00F000
01E000
03E000
07C000
0F8000
1F0000
3E0000
7C0000
ENDCHAR

STARTCHAR colon
ENCODING 58
SWIDTH 270 0
DWIDTH 9 0
BBX 6 17 3 0
BITMAP
3C
3C
3C
3C
3C
00
00
00
00
00
00
00
F0
F0
F0
F0
F0
ENDCHAR

STARTCHAR semicolon
ENCODING 59
SWIDTH 270 0
DWIDTH 9 0
BBX 7 22 2 -5
BITMAP
1E
1E
1E
1E
1E
00
00
00
00
00
00
00
78
78
78
78
78
18
18
38
F0
E0
ENDCHAR

STARTCHAR less
ENCODING 60
SWIDTH 630 0
DWIDTH 21 0
BBX 19 19 4 2
BITMAP
000020
0000E0
0007E0
001FC0
007E00
03F800
0FC000
3F0000
F80000
E00000
F80000
7E0000
1F8000
07E000
01F800
007E00
001F00
000700
000100
ENDCHAR

STARTCHAR equal
ENCODING 61
SWIDTH 630 0
DWIDTH 21 0
BBX 18 8 4 7
BITMAP
7FFFC0
7FFFC0
7FFFC0
000000
000000
FFFF80
FFFF80
FFFF80
ENDCHAR

STARTCHAR greater
ENCODING 62
SWIDTH 630 0
DWIDTH 21 0
BBX 19 19 2 2
BITMAP
100000
1C0000
1F0000
0FC000
03F000
00FC00
003F00
000FC0
0003E0
0000E0
0007E0
001F80
00FE00
03F800
0FC000
7F0000
FC0000
E00000
800000
ENDCHAR

STARTCHAR question
ENCODING 63
SWIDTH 510 0
DWIDTH 17 0
BBX 15 23 4 0
BITMAP
03E0
0FF8
1FFC
3FFC
7C3E
781E
F01E
F03E
007C
00F8
01F0
03E0
07C0
0780
0F00
0F00
0000
0000
1E00
1E00
1E00
1E00
1E00
ENDCHAR

STARTCHAR at
ENCODING 64
SWIDTH 840 0
DWIDTH 28 0
BBX 23 23 5 0
BITMAP
003FC0
00FFE0
03C038
06001C
0C000C
181E0E
307F66
30E3C6
61C1C6
638186
C38386
C70306
C7030C
C7070C
C70E18
C71E30
E3FFE0
61E780
700010
380070
1E03E0
0FFF80
03FE00
ENDCHAR

STARTCHAR A
ENCODING 65
SWIDTH 750 0
DWIDTH 25 0
BBX 24 23 1 0
BITMAP
007F80
007F80
007FC0
007FC0
001FC0
003DE0
0039E0
0079E0
0071E0
00F0F0
01E0F0
01E0F0
03C0F0
03FFF8
07FFF8
0FFFF8
0F0078
1E007C
3E007C
FF83FF
FF83FF
FF83FF
FF83FF
ENDCHAR

STARTCHAR B
ENCODING 66
SWIDTH 570 0
DWIDTH 19 0
BBX 20 23 1 0
BITMAP
1FFF80
1FFFE0
1FFFF0
1FFFF0
07C1F0
0780F0
0780F0
0780F0
0F81E0
0FFFC0
0FFF80
0FFF80
0FFFC0
0F03E0
0F01E0
1F01E0
1E01E0
1E03E0
1E07E0
FFFFC0
FFFF80
FFFF00
FFFC00
ENDCHAR

STARTCHAR C
ENCODING 67
SWIDTH 720 0
DWIDTH 24 0
BBX 23 23 3 0
BITMAP
003F8E
01FFEE
03FFFE
0FFFFE
1FC0FE
1F003E
3E001E
7C0000
780000
F80000
F00000
F00000
F00000
F00000
F00000
F8007C
F800F8
7C03F0
7F07E0
3FFFC0
1FFF80
07FE00
01F800
ENDCHAR

STARTCHAR D
ENCODING 68
SWIDTH 690 0
DWIDTH 23 0
BBX 24 23 1 0
BITMAP
1FFFC0
1FFFF0
1FFFFC
1FFFFC
07807E
07803E
07801F
07801F
0F800F
0F800F
0F000F
0F000F
0F001F
0F001F
0F001E
1F003E
1E007C
1E00FC
1E01F8
FFFFF0
FFFFE0
FFFF80
FFFE00
ENDCHAR

STARTCHAR E
ENCODING 69
SWIDTH 540 0
DWIDTH 18 0
BBX 20 23 1 0
BITMAP
1FFFF0
1FFFF0
1FFFF0
1FFFF0
07C1E0
07C1E0
0781E0
078000
078000
0F8000
0FFE00
0FFE00
0FFE00
0F0000
0F0000
1E0000
1E0780
1E0780
1E0780
FFFF80
FFFF80
FFFF00
FFFF00
ENDCHAR

STARTCHAR F
ENCODING 70
SWIDTH 540 0
DWIDTH 18 0
BBX 21 23 1 0
BITMAP
1FFFF8
1FFFF8
1FFFF8
1FFFF8
07C0F0
07C0F0
0780F0
078000
078000
0F8000
0FFE00
0FFE00
0FFE00
0F0000
0F0000
1F0000
1E0000
1E0000
1E0000
FF8000
FF8000
FF8000
FF8000
ENDCHAR

STARTCHAR G
ENCODING 71
SWIDTH 750 0
DWIDTH 25 0
BBX 24 23 3 0
BITMAP
003F8F
01FFEF
07FFFE
0FFFFE
1FC0FE
3F007E
7E003E
7C0000
780000
F80000
F00000
F03FFE
F03FFE
F03FFC
F03FFC
F0007C
F800FC
FC01FC
7E07F8
7FFFF8
3FFFB8
1FFF38
07FC38
ENDCHAR

STARTCHAR H
ENCODING 72
SWIDTH 690 0
DWIDTH 23 0
BBX 26 23 1 0
BITMAP
1FF07FC0
1FF07FC0
1FF07FC0
1FF07FC0
07801E00
07801E00
07801E00
07801E00
0F803E00
0FFFFC00
0FFFFC00
0FFFFC00
0FFFFC00
0F003C00
0F003C00
1F007800
1E007800
1E007800
1E007800
FF83FE00
FF83FE00
FF83FE00
FF83FE00
ENDCHAR

STARTCHAR I
ENCODING 73
SWIDTH 330 0
DWIDTH 11 0
BBX 12 23 2 0
BITMAP
1FF0
1FF0
1FF0
1FF0
0780
0780
0780
0780
0F80
0F00
0F00
0F00
0F00
0F00
1F00
1E00
1E00
1E00
1E00
FF80
FF80
FF80
FF80
ENDCHAR

STARTCHAR J
ENCODING 74
SWIDTH 510 0
DWIDTH 17 0
BBX 19 23 1 0
BITMAP
007FE0
007FE0
007FE0
007FE0
000F00
000F00
000F00
000F00
001F00
001E00
001E00
001E00
001E00
001E00
003E00
003C00
F03C00
F03C00
F87C00
7FF800
7FF000
3FE000
0F8000
ENDCHAR

STARTCHAR K
ENCODING 75
SWIDTH 690 0
DWIDTH 23 0
BBX 24 23 1 0
BITMAP
1FF1FF
1FF1FF
1FF1FF
1FF1FF
07C0F8
0781F0
0783E0
0787C0
0F9F80
0FBE00
0FFC00
0FF800
0FFC00
0F3E00
1F1F00
1F0F80
1E07C0
1E07E0
1E03F0
FF8FFC
FF8FFC
FF8FFC
FF8FFC
ENDCHAR

STARTCHAR L
ENCODING 76
SWIDTH 540 0
DWIDTH 18 0
BBX 17 23 1 0
BITMAP
1FF000
1FF000
1FF000
1FF000
078000
078000
078000
078000
0F8000
0F0000
0F0000
0F0000
0F0000
0F0000
1F0000
1E0000
1E0780
1E0780
1E0780
FFFF00
FFFF00
FFFF00
FFFF00
ENDCHAR

STARTCHAR M
ENCODING 77
SWIDTH 900 0
DWIDTH 30 0
BBX 32 23 1 0
BITMAP
1FF000FF
1FF000FF
1FF001FF
1FF003FF
07F803F8
07F807F8
07F807F8
07B80F78
0FBC0E78
0F3C1EF0
0F3C3CF0
0F3C3CF0
0F1C78F0
0F1E78F0
1F1EF1F0
1E1EF1E0
1E1FE1E0
1E0FC1E0
1E0FC1E0
FF8F8FF8
FF8F8FF8
FF870FF8
FF870FF8
ENDCHAR

STARTCHAR N
ENCODING 78
SWIDTH 750 0
DWIDTH 25 0
BBX 27 23 1 0
BITMAP
1FC03FE0
1FC03FE0
1FE03FE0
1FF03FE0
07F00F00
07F80F00
07F80F00
07FC0F00
0FFC1F00
0F3E1E00
0F3E1E00
0F1F1E00
0F1F9E00
0F0F9E00
1F07FE00
1E07FC00
1E03FC00
1E03FC00
1E01FC00
FF80FC00
FF80F800
FF807800
FF807800
ENDCHAR

STARTCHAR O
ENCODING 79
SWIDTH 750 0
DWIDTH 25 0
BBX 23 23 3 0
BITMAP
003F80
01FFE0
03FFF0
0FFFF8
1FC1FC
3F007C
3E003E
7C003E
78001E
F8001E
F0001E
F0001E
F0001E
F0003E
F0003C
F8007C
7800F8
7C01F0
3F07F0
3FFFE0
1FFFC0
0FFF00
03FC00
ENDCHAR

STARTCHAR P
ENCODING 80
SWIDTH 570 0
DWIDTH 19 0
BBX 21 23 1 0
BITMAP
1FFF00
1FFFE0
1FFFF0
1FFFF0
07C1F8
0780F8
0780F8
0780F8
0780F8
0F01F0
0F03F0
0FFFE0
0FFFC0
0FFF80
1FFC00
1F0000
1E0000
1E0000
1E0000
FF8000
FF8000
FF8000
FF8000
ENDCHAR

STARTCHAR Q
ENCODING 81
SWIDTH 810 0
DWIDTH 27 0
BBX 24 23 3 0
BITMAP
007F80
01FFE0
07FFF0
0FFFF8
1FC1FC
3F007C
7E003E
7C003E
78001E
F8001E
F0001E
F3E01E
F7F81E
FFFC3E
FFFE3C
FC1FFC
F80FF8
7C07F0
7F03E7
3FFFF7
1FFFFF
0FFE7F
03F81F
ENDCHAR

STARTCHAR R
ENCODING 82
SWIDTH 600 0
DWIDTH 20 0
BBX 21 23 1 0
BITMAP
1FFF80
1FFFE0
1FFFF0
1FFFF0
0781F8
0780F8
078078
078078
0F80F8
0F00F8
0F01F0
0F07E0
0FFFC0
0FFF80
1F7E00
1E3C00
1E3E00
1E1F00
1E1F00
FF0FE0
FF0FE0
FF07E0
FF07E0
ENDCHAR

STARTCHAR S
ENCODING 83
SWIDTH 510 0
DWIDTH 17 0
BBX 18 23 2 0
BITMAP
00F9C0
03FFC0
07FF80
0F8F80
1F0780
1E0780
3E0000
3E0000
3F0000
1FE000
1FF800
0FFE00
03FE00
007F00
001F00
000F00
780F00
780F00
781E00
7C3E00
FFFC00
FFF800
E7E000
ENDCHAR

STARTCHAR T
ENCODING 84
SWIDTH 570 0
DWIDTH 19 0
BBX 18 23 4 0
BITMAP
7FFFC0
7FFFC0
7FFFC0
FFFFC0
E1E380
E1E380
E1E380
01E000
03C000
03C000
03C000
33CC00
13C800
03C000
078000
078000
078000
078000
078000
3FE000
3FE000
3FE000
3FE000
ENDCHAR

STARTCHAR U
ENCODING 85
SWIDTH 660 0
DWIDTH 22 0
BBX 21 23 4 0
BITMAP
FF8FF8
FF8FF8
FF8FF8
FF8FF8
3C03C0
3C03C0
3C03C0
3C03C0
7C07C0
780780
780780
780780
780780
780780
F80F80
F80F00
F80F00
F81F00
FC3E00
7FFE00
7FFC00
3FF800
0FE000
ENDCHAR

STARTCHAR V
ENCODING 86
SWIDTH 720 0
DWIDTH 24 0
BBX 22 23 4 0
BITMAP
FF87FC
FF87FC
FF87FC
FF87FC
3C01F0
3C01E0
3E03C0
3E03C0
1E0780
1E0780
1E0F00
1E0F00
1F1E00
1F3E00
0F3C00
0F7C00
0F7800
0FF800
0FF000
0FE000
07E000
07C000
07C000
ENDCHAR

STARTCHAR W
ENCODING 87
SWIDTH 960 0
DWIDTH 32 0
BBX 32 23 4 0
BITMAP
FF83C1FF
FF83C1FF
FF87C1FF
FF87C1FF
3C0FC078
3C0FC0F0
3C1FE0F0
3C1FE1E0
3C1DE1E0
3C3DE1C0
3E39E3C0
3E79E3C0
1E79E780
1E71E780
1EF1EF00
1EE0EF00
1FE0FE00
1FC0FE00
1FC0FC00
1F80FC00
0F807C00
0F007800
0F007800
ENDCHAR

STARTCHAR X
ENCODING 88
SWIDTH 720 0
DWIDTH 24 0
BBX 26 23 1 0
BITMAP
0FF8FFC0
0FF8FFC0
0FF8FFC0
0FF8FFC0
03E07E00
01F0F800
00F1F000
00FBE000
007FC000
003F8000
003F0000
003E0000
007F0000
00FF8000
01F78000
03E7C000
07C3E000
0F83E000
1F01F000
FFC7FE00
FFC7FE00
FFC7FE00
FFC7FE00
ENDCHAR

STARTCHAR Y
ENCODING 89
SWIDTH 660 0
DWIDTH 22 0
BBX 21 23 5 0
BITMAP
FF8FF8
FF8FF8
FF8FF8
FF8FF8
1E03C0
1E0780
1E0F00
0F1E00
0F1C00
0F3C00
07F800
07F000
07E000
03C000
03C000
03C000
078000
078000
078000
3FE000
3FE000
3FE000
3FE000
ENDCHAR

STARTCHAR Z
ENCODING 90
SWIDTH 540 0
DWIDTH 18 0
BBX 19 23 2 0
BITMAP
0FFFE0
0FFFE0
0FFFE0
0FFFE0
1E07C0
1E0F80
1E0F00
001E00
003E00
007C00
00F800
01F000
03E000
03C000
078000
0F0000
1F0780
3E0780
7C0780
FFFF80
FFFF00
FFFF00
FFFF00
ENDCHAR

STARTCHAR bracketleft
ENCODING 91
SWIDTH 360 0
DWIDTH 12 0
BBX 14 27 1 -4
BITMAP
07FC
07FC
07FC
0FFC
0F00
0F00
0F00
0F00
1F00
1E00
1E00
1E00
1E00
3E00
3C00
3C00
3C00
3C00
3C00
7800
7800
7800
7800
FFC0
FFC0
FFC0
FFC0
ENDCHAR

STARTCHAR backslash
ENCODING 92
SWIDTH 600 0
DWIDTH 20 0
BBX 7 23 8 0
BITMAP
E0
E0
E0
E0
E0
70
70
70
70
38
38
38
38
3C
1C
1C
1C
1E
0E
0E
0E
0E
0E
ENDCHAR

STARTCHAR bracketright
ENCODING 93
SWIDTH 360 0
DWIDTH 12 0
BBX 13 27 2 -4
BITMAP
1FF8
1FF8
1FF8
1FF8
00F0
00F0
00F0
00F0
01F0
01F0
01E0
01E0
01E0
01E0
03E0
03E0
03C0
03C0
03C0
07C0
07C0
07C0
0780
FF80
FF80
FF80
FF80
ENDCHAR

STARTCHAR asciicircum
ENCODING 94
SWIDTH 630 0
DWIDTH 21 0
BBX 19 18 2 5
BITMAP
001C00
001C00
003C00
007E00
006E00
00C600
01C700
018700
038300
070380
060380
0E0380
1C0180
1801C0
3801C0
7001C0
7000E0
E000E0
ENDCHAR

STARTCHAR underscore
ENCODING 95
SWIDTH 480 0
DWIDTH 16 0
BBX 15 3 0 -4
BITMAP
FFFE
FFFE
FFFE
ENDCHAR

STARTCHAR quoteleft
ENCODING 96
SWIDTH 180 0
DWIDTH 6 0
BBX 5 10 4 13
BITMAP
18
30
70
60
C0
F0
F0
F0
F0
F0
ENDCHAR

STARTCHAR a
ENCODING 97
SWIDTH 630 0
DWIDTH 21 0
BBX 21 18 2 0
BITMAP
00F8F8
07FCF8
0FFFF8
1FFFF8
3E07E0
7C03E0
7803E0
F001E0
F001E0
F003C0
F003C0
F007C0
F807C0
7C1FC0
7FFFE0
3FFFE0
1FF7E0
07C7E0
ENDCHAR

STARTCHAR b
ENCODING 98
SWIDTH 630 0
DWIDTH 21 0
BBX 21 23 2 0
BITMAP
3F8000
3F8000
3F8000
3F8000
0F0000
0F0F00
0F7FC0
0FFFE0
0FFFF0
0FC1F0
1F00F8
1E0078
1E0078
1C0078
1C0078
3C00F8
3C00F0
3E01E0
3F07E0
FFFFC0
FFFF80
F9FE00
F87800
ENDCHAR

STARTCHAR c
ENCODING 99
SWIDTH 540 0
DWIDTH 18 0
BBX 17 18 3 0
BITMAP
01F380
07FF80
0FFF80
1FFF00
3F1F00
3C0F00
780000
780000
F00000
F00000
F00000
F80000
F83E00
7C7E00
7FFC00
3FF800
1FF000
07C000
ENDCHAR

STARTCHAR d
ENCODING 100
SWIDTH 630 0
DWIDTH 21 0
BBX 21 23 2 0
BITMAP
0003F8
0003F8
0003F8
0003F0
0000F0
00F0F0
03FCF0
0FFEF0
1FFFE0
3F0FE0
7C03E0
7803E0
F801E0
F001E0
F001C0
F003C0
F003C0
F007C0
7C1FC0
7FFFF0
3FFFF0
1FF7F0
07C7F0
ENDCHAR

STARTCHAR e
ENCODING 101
SWIDTH 540 0
DWIDTH 18 0
BBX 17 18 2 0
BITMAP
03F000
0FFC00
1FFE00
3FFF00
3E1F00
780F80
700780
F00780
FFFF80
FFFF80
FFFF80
F00000
F00000
783F00
7FFE00
3FFC00
3FF000
0FC000
ENDCHAR

STARTCHAR f
ENCODING 102
SWIDTH 300 0
DWIDTH 10 0
BBX 12 23 2 0
BITMAP
00F0
03F0
07F0
0780
0F00
3FC0
3FC0
3FC0
3FC0
0E00
1E00
1E00
1E00
1E00
1C00
3C00
3C00
3C00
3C00
FF00
FF00
FF00
FF00
ENDCHAR

STARTCHAR g
ENCODING 103
SWIDTH 630 0
DWIDTH 21 0
BBX 22 25 1 -7
BITMAP
007C7C
01FF7C
07FFFC
0FFFFC
1F83F0
3E01F0
3C01F0
7C01F0
7801E0
7801E0
7803E0
7803E0
7807E0
7C0FC0
3FFFC0
3FFBC0
1FF3C0
07C7C0
000780
F00F80
F81F00
7C7E00
7FFC00
3FF800
0FE000
ENDCHAR

STARTCHAR h
ENCODING 104
SWIDTH 600 0
DWIDTH 20 0
BBX 18 23 2 0
BITMAP
3F8000
3F8000
3F8000
3F8000
0F0000
0F1E00
0F7F00
0FFF80
0FFF80
0F87C0
1F03C0
1E03C0
1E03C0
1E03C0
1E03C0
3C0780
3C0780
3C0780
3C0780
FE1FC0
FE1FC0
FE1FC0
FE1FC0
ENDCHAR

STARTCHAR i
ENCODING 105
SWIDTH 300 0
DWIDTH 10 0
BBX 8 23 2 0
BITMAP
0F
0F
0F
0F
00
3F
3F
3F
3F
0E
0E
1E
1E
1E
1C
3C
3C
3C
3C
FF
FF
FF
FF
ENDCHAR

STARTCHAR j
ENCODING 106
SWIDTH 270 0
DWIDTH 9 0
BBX 11 30 0 -7
BITMAP
01E0
01E0
01E0
01E0
0000
07E0
07E0
07E0
07E0
01C0
01C0
03C0
03C0
03C0
0380
0780
0780
0780
0780
0700
0F00
0F00
0F00
0F00
1E00
1E00
3E00
FC00
F800
E000
ENDCHAR

STARTCHAR k
ENCODING 107
SWIDTH 570 0
DWIDTH 19 0
BBX 18 23 2 0
BITMAP
1F8000
1F8000
1F8000
1F8000
0F0000
0F1FC0
0F1FC0
0F1FC0
0E0FC0
0E1E00
1E3C00
1E7800
1EF000
1FE000
1FE000
3DF000
3CF800
3C7C00
3C3E00
FE7F80
FE7F80
FE7F80
FE7F80
ENDCHAR

STARTCHAR l
ENCODING 108
SWIDTH 300 0
DWIDTH 10 0
BBX 9 23 2 0
BITMAP
3F80
3F80
3F80
3F80
0F00
0F00
0F00
0F00
0E00
0E00
1E00
1E00
1E00
1E00
1C00
3C00
3C00
3C00
3C00
FF00
FF00
FF00
FF00
ENDCHAR

STARTCHAR m
ENCODING 109
SWIDTH 930 0
DWIDTH 31 0
BBX 30 18 2 0
BITMAP
7E1E03C0
7E7F0FF0
7EFF9FF0
7FFFFFF8
0F87F0F8
1F03E078
1E03C078
1E03C078
1E03C078
1E03C078
3C0780F0
3C0780F0
3C0780F0
3C0780F0
FF1FE3FC
FF1FE3FC
FF1FE3FC
FF1FE3FC
ENDCHAR

STARTCHAR n
ENCODING 110
SWIDTH 600 0
DWIDTH 20 0
BBX 19 18 2 0
BITMAP
7F1E00
7F7F80
7FFF80
7FFFC0
0F87C0
1F03C0
1F03C0
1E03C0
1E03C0
1E03C0
3C0780
3C0780
3C0780
3C0780
FF1FE0
FF1FE0
FF1FE0
FF1FE0
ENDCHAR

STARTCHAR o
ENCODING 111
SWIDTH 540 0
DWIDTH 18 0
BBX 18 18 2 0
BITMAP
01F800
07FE00
0FFF00
1FFF80
3F1F80
7C07C0
7807C0
F803C0
F003C0
F003C0
F007C0
F00780
F81F80
7C7F00
7FFE00
3FFC00
1FF000
07C000
ENDCHAR

STARTCHAR p
ENCODING 112
SWIDTH 630 0
DWIDTH 21 0
BBX 22 24 1 -6
BITMAP
1F8F80
1FBFE0
1FFFF0
1FFFF8
07E1FC
0FC07C
0F803C
0F003C
0F003C
0E003C
1E007C
1F0078
1F00F8
1F83F0
1FFFE0
1DFFC0
3CFF00
3C3C00
3C0000
3C0000
FF0000
FF0000
FF0000
FF0000
ENDCHAR

STARTCHAR q
ENCODING 113
SWIDTH 630 0
DWIDTH 21 0
BBX 22 24 2 -6
BITMAP
00F8FC
07FCFC
0FFFFC
1FFFFC
3E07E0
7C03E0
7803E0
F801E0
F001E0
F003C0
F003C0
F007C0
F807C0
7C1FC0
7FFF80
3FFF80
1FF780
07C780
000780
000780
001FE0
001FE0
001FE0
001FE0
ENDCHAR

STARTCHAR r
ENCODING 114
SWIDTH 360 0
DWIDTH 12 0
BBX 13 18 2 0
BITMAP
3E18
3E78
3EF8
3FF8
0FC0
1F00
1E00
1E00
1E00
1C00
3C00
3C00
3C00
3C00
FF00
FF00
FF00
FF00
ENDCHAR

STARTCHAR s
ENCODING 115
SWIDTH 450 0
DWIDTH 15 0
BBX 15 18 2 0
BITMAP
03EE
0FFE
1FFE
3E3C
3C3C
3C00
3E00
3FC0
1FF0
0FF8
03FC
00FC
007C
787C
7CFC
7FF8
FFF0
E7C0
ENDCHAR

STARTCHAR t
ENCODING 116
SWIDTH 330 0
DWIDTH 11 0
BBX 8 23 4 0
BITMAP
1E
1E
1E
1C
1C
FF
FF
FF
FF
38
38
78
78
78
78
70
70
F0
F0
FE
FE
FE
FE
ENDCHAR

STARTCHAR u
ENCODING 117
SWIDTH 600 0
DWIDTH 20 0
BBX 17 18 4 0
BITMAP
FC1F80
FC1F80
FC1F80
F81F80
380700
780F00
780F00
780F00
780F00
700E00
F01E00
F01E00
F03E00
F87E00
7FFF80
7FFF80
3FDF80
1F1F80
ENDCHAR

STARTCHAR v
ENCODING 118
SWIDTH 570 0
DWIDTH 19 0
BBX 18 18 3 0
BITMAP
FF1FC0
FF1FC0
FF1FC0
FF1FC0
3C0F00
3C0E00
3C1E00
3C3C00
1E3C00
1E7800
1E7800
1EF000
1EF000
0FE000
0FC000
0FC000
0F8000
0F8000
ENDCHAR

STARTCHAR w
ENCODING 119
SWIDTH 840 0
DWIDTH 28 0
BBX 27 18 3 0
BITMAP
FF000FE0
FF0F0FE0
FF0F0FE0
FF1F0FE0
3C1F0780
3C3F0700
3C3F0F00
3C7F0E00
3C779E00
3CF79C00
3CE7BC00
1DE7B800
1FC7F800
1F83F000
1F83F000
1F03E000
1F03E000
1E03C000
ENDCHAR

STARTCHAR x
ENCODING 120
SWIDTH 600 0
DWIDTH 20 0
BBX 19 18 2 0
BITMAP
3FCFE0
3FCFE0
3FCFE0
3F07E0
0F8F80
07DF00
03FE00
01FC00
01F800
03F000
07F800
0FFC00
1F3E00
3E1F00
FC0FC0
FE3FC0
FE3FC0
FE3FC0
ENDCHAR

STARTCHAR y
ENCODING 121
SWIDTH 570 0
DWIDTH 19 0
BBX 18 24 3 -6
BITMAP
FF3FC0
FF3FC0
FF3FC0
FF3FC0
3C0F00
3C1E00
3C1E00
1E3C00
1E3C00
1E7800
1E7000
1EF000
0FE000
0FC000
0FC000
0F8000
0F0000
0F0000
1E0000
1E0000
7F8000
7F8000
7F8000
7F8000
ENDCHAR

STARTCHAR z
ENCODING 122
SWIDTH 450 0
DWIDTH 15 0
BBX 15 18 2 0
BITMAP
1FFE
1FFE
1FFE
3FFE
383E
387C
00F8
01F0
03E0
07C0
0F80
1F00
3E1C
7C1C
FFFC
FFFC
FFF8
FFF8
ENDCHAR

STARTCHAR braceleft
ENCODING 123
SWIDTH 300 0
DWIDTH 10 0
BBX 11 29 3 -5
BITMAP
00E0
0380
0700
0700
0F00
0F00
0F00
0E00
0E00
0E00
1E00
1E00
1C00
3800
F000
7800
3C00
3C00
3C00
3800
3800
7800
7800
7000
7000
7000
7000
3800
1C00
ENDCHAR

STARTCHAR bar
ENCODING 124
SWIDTH 630 0
DWIDTH 21 0
BBX 7 23 9 0
BITMAP
0E
0E
0C
0C
1C
1C
1C
1C
18
38
38
38
38
38
30
70
70
70
70
70
60
E0
E0
ENDCHAR

STARTCHAR braceright
ENCODING 125
SWIDTH 300 0
DWIDTH 10 0
BBX 10 29 1 -5
BITMAP
0E00
0700
0380
0380
0380
0380
0380
0780
0780
0780
0700
0700
0700
0380
01C0
0700
0600
0E00
0E00
0E00
1E00
1E00
1C00
1C00
1C00
3C00
3800
7000
E000
ENDCHAR

STARTCHAR asciitilde
ENCODING 126
SWIDTH 630 0
DWIDTH 21 0
BBX 18 5 4 9
BITMAP
0F0080
3FC1C0
7FFF80
E0FF00
403C00
ENDCHAR

STARTCHAR cent
ENCODING 162
SWIDTH 570 0
DWIDTH 19 0
BBX 15 21 4 1
BITMAP
00E0
00E0
00C0
03E6
0FFE
1FFE
3FFC
7C3C
781C
F000
F000
F000
F000
F87C
7FF8
7FF0
3FE0
0F80
0600
0E00
0E00
ENDCHAR

STARTCHAR sterling
ENCODING 163
SWIDTH 570 0
DWIDTH 19 0
BBX 17 23 2 0
BITMAP
01F380
07FF80
0FFF80
1FFF00
3E0F00
3C0700
3C0700
3C0000
1C0000
1E0000
FFF800
FFF800
FFF800
0F0000
078000
078780
078780
078780
0F0F00
1E1F00
FFFE00
FFFC00
FFF000
ENDCHAR

STARTCHAR currency
ENCODING 164
SWIDTH 570 0
DWIDTH 19 0
BBX 18 16 3 3
BITMAP
08F880
1DFDC0
3FFFC0
1FFF80
1E1F00
3C0F80
780780
780780
780780
780780
7C0F00
3E1E00
7FFE00
FFFF00
EFEE00
47C400
ENDCHAR

STARTCHAR yen
ENCODING 165
SWIDTH 570 0
DWIDTH 19 0
BBX 19 23 3 0
BITMAP
7F8FE0
7F8FE0
7F8FE0
7F8FE0
1E0780
0E0700
0F0F00
0F1E00
071C00
7FBFC0
7FBFC0
03F000
03E000
FFFF80
FFFF80
03C000
03C000
03C000
03C000
1FF000
1FF000
1FF000
1FF000
ENDCHAR

STARTCHAR brokenbar
ENCODING 166
SWIDTH 630 0
DWIDTH 21 0
BBX 7 23 9 0
BITMAP
0E
0E
0E
0E
1C
1C
1C
1C
00
00
00
00
00
00
00
70
70
70
70
E0
E0
E0
E0
ENDCHAR

STARTCHAR section
ENCODING 167
SWIDTH 450 0
DWIDTH 15 0
BBX 14 27 2 -4
BITMAP
01E0
07F8
0FFC
1E3C
1C1C
1C00
1E00
0F00
07C0
0FE0
1FF0
3CF8
7878
7878
7870
3CF0
3FE0
1F80
07C0
01E0
00E0
E0E0
E0E0
F1E0
FFC0
7F80
3E00
ENDCHAR

STARTCHAR dieresis
ENCODING 168
SWIDTH 450 0
DWIDTH 15 0
BBX 11 4 6 20
BITMAP
F1E0
F1E0
F1E0
F1E0
ENDCHAR

STARTCHAR copyright
ENCODING 169
SWIDTH 780 0
DWIDTH 26 0
BBX 24 23 3 0
BITMAP
007F80
01FFE0
078078
0E001C
181F06
307F86
30E1C7
6180C3
630003
C30003
C60003
C60003
C60003
C60006
C60386
C3070C
63FE1C
60F838
300070
3800E0
1C03C0
0FFF00
03FC00
ENDCHAR

STARTCHAR multiply
ENCODING 170
SWIDTH 630 0
DWIDTH 21 0
BBX 17 15 4 4
BITMAP
080300
3C0780
3C0F00
1E1E00
0F3C00
07F800
03F000
03E000
07E000
0FF000
1E7800
3C3C00
781E00
F01E00
600800
ENDCHAR

STARTCHAR guillemotleft
ENCODING 171
SWIDTH 360 0
DWIDTH 12 0
BBX 11 12 2 3
BITMAP
0420
0C60
1CE0
39C0
7380
E700
E700
E700
7380
3180
39C0
18C0
ENDCHAR

STARTCHAR logicalnot
ENCODING 172
SWIDTH 630 0
DWIDTH 21 0
BBX 18 10 4 5
BITMAP
FFFFC0
FFFFC0
FFFFC0
0001C0
0001C0
000180
000380
000380
000380
000380
ENDCHAR

STARTCHAR hyphen
ENCODING 173
SWIDTH 300 0
DWIDTH 10 0
BBX 8 4 3 7
BITMAP
FF
FF
FF
FF
ENDCHAR

STARTCHAR registered
ENCODING 174
SWIDTH 780 0
DWIDTH 26 0
BBX 24 23 3 0
BITMAP
007FC0
01FFF0
078038
0E000C
1CFF86
38FFC6
30C0E7
60C063
60C0E3
C181C3
C1FF83
C1FE03
C18603
C18603
C18306
C30306
63018C
6301DC
300038
380070
1E01E0
07FF80
03FE00
ENDCHAR

STARTCHAR macron
ENCODING 175
SWIDTH 510 0
DWIDTH 17 0
BBX 12 3 6 21
BITMAP
FFF0
FFF0
FFF0
ENDCHAR

STARTCHAR degree
ENCODING 176
SWIDTH 390 0
DWIDTH 13 0
BBX 9 9 5 14
BITMAP
1E00
7F00
6380
C180
C180
C180
E300
7F00
3C00
ENDCHAR

STARTCHAR plusminus
ENCODING 177
SWIDTH 630 0
DWIDTH 21 0
BBX 18 17 3 3
BITMAP
007000
007000
007000
007000
3FFFC0
3FFFC0
3FFFC0
00E000
00E000
00E000
00E000
000000
000000
000000
FFFF00
FFFF00
FFFF00
ENDCHAR

STARTCHAR twosuperior
ENCODING 178
SWIDTH 330 0
DWIDTH 11 0
BBX 12 14 2 9
BITMAP
0380
0FE0
1FF0
3CF0
3870
00F0
01E0
03C0
0F00
1E00
3CC0
78C0
FFC0
FFC0
ENDCHAR

STARTCHAR threesuperior
ENCODING 179
SWIDTH 330 0
DWIDTH 11 0
BBX 11 14 3 9
BITMAP
0F80
1FC0
39E0
30E0
01C0
0F80
0F80
03C0
01C0
01C0
E1C0
E380
FF00
7E00
ENDCHAR

STARTCHAR acute
ENCODING 180
SWIDTH 450 0
DWIDTH 15 0
BBX 11 7 6 19
BITMAP
0080
03C0
0FE0
3F80
FE00
F000
4000
ENDCHAR

STARTCHAR mu
ENCODING 181
SWIDTH 600 0
DWIDTH 20 0
BBX 19 24 2 -6
BITMAP
3F07E0
3F07E0
3F07E0
3E07C0
0E01C0
1E03C0
1E03C0
1E03C0
1E03C0
1C0380
3C0780
3C0780
3C0F80
3E1F80
3FFFE0
3FFFE0
7FF7E0
7FC7E0
780000
780000
700000
700000
F00000
F00000
ENDCHAR

STARTCHAR paragraph
ENCODING 182
SWIDTH 510 0
DWIDTH 17 0
BBX 17 27 3 -4
BITMAP
07FF80
1FFF80
3FFF80
7FFF80
FF8E00
FF8E00
FF8E00
FF8E00
7F0C00
7F0C00
3F1C00
1F1C00
071C00
071C00
061800
0E3800
0E3800
0E3800
0E3800
0C3000
0C3000
1C7000
1C7000
1C7000
1C7000
38E000
38E000
ENDCHAR

STARTCHAR periodcentered
ENCODING 183
SWIDTH 300 0
DWIDTH 10 0
BBX 4 5 5 9
BITMAP
F0
F0
F0
F0
F0
ENDCHAR

STARTCHAR cedilla
ENCODING 184
SWIDTH 360 0
DWIDTH 12 0
BBX 7 7 2 -7
BITMAP
1C
38
7C
0E
C6
FC
78
ENDCHAR

STARTCHAR onesuperior
ENCODING 185
SWIDTH 330 0
DWIDTH 11 0
BBX 7 14 4 9
BITMAP
3E
3E
0E
0E
0C
1C
1C
1C
1C
18
38
38
FE
FE
ENDCHAR

STARTCHAR divide
ENCODING 186
SWIDTH 630 0
DWIDTH 21 0
BBX 16 13 5 5
BITMAP
01C0
01C0
01C0
0000
0000
FFFF
FFFF
FFFF
0000
0000
0380
0380
0380
ENDCHAR

STARTCHAR guillemotright
ENCODING 187
SWIDTH 360 0
DWIDTH 12 0
BBX 11 12 2 3
BITMAP
2100
3180
3180
39C0
18C0
1CE0
1CE0
39C0
7380
E700
C600
8400
ENDCHAR

STARTCHAR onequarter
ENCODING 188
SWIDTH 840 0
DWIDTH 28 0
BBX 23 23 4 0
BITMAP
3E00E0
3E01C0
0E01C0
0E0380
0C0300
1C0700
1C0E00
1C0E00
181C00
38181C
38383C
38707C
FC70FC
FCE1D8
00C398
01C718
038E38
038FFE
070FFE
0E0030
0E0030
1C00FC
3C00FC
ENDCHAR

STARTCHAR onehalf
ENCODING 189
SWIDTH 840 0
DWIDTH 28 0
BBX 25 23 4 0
BITMAP
3E007000
3E00E000
0E00C000
0E01C000
0C038000
1C038000
1C070000
1C0E0000
1C0E0000
381C1C00
38387F00
3838FF80
FC71E780
FC61C380
00E00780
01C00F00
01801E00
03807800
0700F000
0601E600
0E03C600
1C07FE00
3807FE00
ENDCHAR

STARTCHAR threequarters
ENCODING 190
SWIDTH 840 0
DWIDTH 28 0
BBX 25 23 3 0
BITMAP
07803C00
1FC03800
39E07000
30E07000
01C0E000
0F81C000
0F81C000
03C38000
01C30000
01C70700
E1CE0F00
E38E1F00
7F1C3F00
3E387600
0038E600
0071C600
00738E00
00E3FF80
01C3FF80
01C00C00
03800C00
07003F00
0F003F00
ENDCHAR

STARTCHAR dblunderscore
ENCODING 223
SWIDTH 510 0
DWIDTH 17 0
BBX 17 14 0 -7
BITMAP
000000
000000
000000
000000
000000
FFFF80
FFFF80
FFFF80
000000
000000
FFFF80
FFFF80
FFFF80
000000
ENDCHAR

STARTCHAR aleph
ENCODING 224
SWIDTH 660 0
DWIDTH 22 0
BBX 22 20 0 0
BITMAP
0783F0
0783F8
07C3F8
03C3F8
03E078
01E0F8
03F0F0
0FF1F0
1FFFE0
1F7FC0
3C3F80
3C3E00
781F00
781F00
780F80
780F80
7F87C0
7F87C0
7F83E0
7F83E0
ENDCHAR

STARTCHAR beth
ENCODING 225
SWIDTH 570 0
DWIDTH 19 0
BBX 18 20 0 0
BITMAP
0FFF00
0FFF80
0FFF80
0FFF80
000780
000780
000780
000F00
000F00
000F00
000F00
000F00
001E00
001E00
001E00
001E00
FFFFC0
FFFFC0
FFFFC0
FFFFC0
ENDCHAR

STARTCHAR gimmel
ENCODING 226
SWIDTH 480 0
DWIDTH 16 0
BBX 16 20 0 0
BITMAP
01FF
01FF
01FF
01FF
000F
000F
000F
001E
001E
001E
001E
003E
007E
00FC
03FC
0FBC
FFBC
FF3C
FE3C
F83C
ENDCHAR

STARTCHAR daleth
ENCODING 227
SWIDTH 600 0
DWIDTH 20 0
BBX 19 20 1 0
BITMAP
7FFFE0
7FFFE0
7FFFE0
7FFFE0
001E00
001E00
001E00
001E00
003C00
003C00
003C00
003C00
003C00
003C00
007800
007800
007800
007800
007800
007800
ENDCHAR

STARTCHAR he
ENCODING 228
SWIDTH 630 0
DWIDTH 21 0
BBX 20 20 1 0
BITMAP
3FFFE0
3FFFF0
3FFFF0
3FFFF0
0000F0
0000F0
0000F0
0001E0
1E01E0
1E01E0
1E01E0
1E01E0
1E01E0
3C03C0
3C03C0
3C03C0
3C03C0
3C03C0
3C03C0
3C03C0
ENDCHAR

STARTCHAR waw
ENCODING 229
SWIDTH 390 0
DWIDTH 13 0
BBX 11 20 2 0
BITMAP
7FE0
7FE0
7FE0
7FE0
01E0
01E0
01E0
03C0
03C0
03C0
03C0
03C0
03C0
03C0
0780
0780
0780
0780
0780
0780
ENDCHAR

STARTCHAR zayin
ENCODING 230
SWIDTH 420 0
DWIDTH 14 0
BBX 12 20 2 0
BITMAP
7FF0
7FF0
7FF0
7FF0
0780
0780
0780
0780
0F00
0F00
0F00
0F00
0F00
0F00
1E00
1E00
1E00
1E00
1E00
1E00
ENDCHAR

STARTCHAR het
ENCODING 231
SWIDTH 660 0
DWIDTH 22 0
BBX 21 20 1 0
BITMAP
3FFFF8
3FFFF8
3FFFF8
3FFFF8
0F01E0
0F01E0
0F01E0
0F01E0
1E03C0
1E03C0
1E03C0
1E03C0
1E03C0
1E03C0
3C0780
3C0780
3C0780
3C0780
3C0780
3C0780
ENDCHAR

STARTCHAR teth
ENCODING 232
SWIDTH 690 0
DWIDTH 23 0
BBX 23 20 0 0
BITMAP
3F83F8
3F8FFC
3F9FFE
3F9FFE
0F1E1E
0F3C1E
0F3C1E
1E3C1E
1E3C3C
1E003C
1E003C
1E003C
3C0078
3C0078
3C0078
3C00F8
3FFFF0
3FFFF0
1FFFE0
0FFF80
ENDCHAR

STARTCHAR yod
ENCODING 233
SWIDTH 330 0
DWIDTH 11 0
BBX 11 15 0 5
BITMAP
3FC0
3FE0
3FE0
3FE0
01E0
01E0
01E0
01E0
03C0
03C0
03C0
03C0
0000
0000
0000
ENDCHAR

STARTCHAR kaphfinal
ENCODING 234
SWIDTH 540 0
DWIDTH 18 0
BBX 18 27 0 -7
BITMAP
3FFFC0
3FFFC0
3FFFC0
3FFFC0
001E00
001E00
001E00
001E00
003C00
003C00
003C00
003C00
003C00
003C00
007800
007800
007800
007800
007800
00F000
00F000
00F000
00FF00
00FF00
00FF00
007F00
000000
ENDCHAR

STARTCHAR kaph
ENCODING 235
SWIDTH 570 0
DWIDTH 19 0
BBX 19 20 0 0
BITMAP
1FFFC0
1FFFE0
1FFFE0
1FFFE0
0001E0
0001E0
0001E0
0001E0
0001E0
0003C0
0003C0
0003C0
0003C0
0003C0
000780
000780
FFFF80
FFFF80
FFFF00
FFFF00
ENDCHAR

STARTCHAR lamed
ENCODING 236
SWIDTH 540 0
DWIDTH 18 0
BBX 18 29 0 -2
BITMAP
000000
000000
1E0000
1E0000
1E0000
3C0000
3C0000
3FFF80
3FFFC0
3FFFC0
3FFFC0
0003C0
0003C0
0003C0
0007C0
000F80
001F00
003E00
007C00
00F800
01F000
03E000
03C000
03FC00
03FC00
03FC00
01FC00
000000
000000
ENDCHAR

STARTCHAR memfinal
ENCODING 237
SWIDTH 630 0
DWIDTH 21 0
BBX 21 20 0 0
BITMAP
3FFFF8
3FFFF8
3FFFF8
3FFFF8
0F0078
0F0078
0F0078
0F0078
1E00F0
1E00F0
1E00F0
1E00F0
1E00F0
3C00F0
3C01E0
3C01E0
3FFFE0
3FFFE0
3FFFE0
3FFFE0
ENDCHAR

STARTCHAR mem
ENCODING 238
SWIDTH 690 0
DWIDTH 23 0
BBX 23 22 0 -2
BITMAP
3F0FF8
3F3FFC
3F7FFE
3FFFFE
07F03E
07C01E
07801E
07801E
0F003C
0F003C
0F003C
0F003C
0F003C
1E0078
1E0078
1E0078
1E3FF8
1E3FF8
1E3FF0
1E3FE0
000000
000000
ENDCHAR

STARTCHAR nunfinal
ENCODING 239
SWIDTH 360 0
DWIDTH 12 0
BBX 10 27 2 -7
BITMAP
FFC0
FFC0
FFC0
FFC0
03C0
03C0
03C0
0780
0780
0780
0780
0780
0780
0F00
0F00
0F00
0F00
0F00
0F00
1E00
1E00
1E00
1FC0
1FC0
1FC0
1FC0
0000
ENDCHAR

STARTCHAR nun
ENCODING 240
SWIDTH 450 0
DWIDTH 15 0
BBX 15 20 0 0
BITMAP
01FE
01FE
01FE
01FE
001E
001E
001E
003C
003C
003C
003C
003C
003C
0078
0078
0078
FFF8
FFF8
FFF8
FFF0
ENDCHAR

STARTCHAR samekh
ENCODING 241
SWIDTH 690 0
DWIDTH 23 0
BBX 23 20 0 0
BITMAP
1FFFF8
1FFFFC
1FFFFE
1FFFFE
07803E
07801E
07801E
07801E
0F001E
0F003C
0F003C
0F003C
1E0078
1E00F8
1E01F0
1F03F0
0FFFE0
0FFFC0
07FF80
01FE00
ENDCHAR

STARTCHAR ayin
ENCODING 242
SWIDTH 600 0
DWIDTH 20 0
BBX 20 20 0 0
BITMAP
1FC7F0
1FC7F0
1FC7F0
1FC7F0
03C0F0
03C0F0
03C0F0
03C0F0
0781E0
0781E0
0781E0
0781E0
0783C0
0F03C0
0F07C0
0F0F80
FFFF80
FFFF00
FFFE00
FFF800
ENDCHAR

STARTCHAR pefinal
ENCODING 243
SWIDTH 570 0
DWIDTH 19 0
BBX 18 26 1 -6
BITMAP
3FFFC0
3FFFC0
3FFFC0
7FFFC0
7803C0
7803C0
7803C0
780780
F00780
F00780
FE0780
FE0780
FE0780
FE0F00
000F00
000F00
000F00
000F00
000F00
001E00
001E00
001E00
001FC0
001FC0
001FC0
001FC0
ENDCHAR

STARTCHAR pe
ENCODING 244
SWIDTH 570 0
DWIDTH 19 0
BBX 19 20 0 0
BITMAP
0FFFE0
0FFFE0
0FFFE0
1FFFE0
1E01E0
1E01E0
1E01E0
3C03C0
3F03C0
3F03C0
3F03C0
3F03C0
000780
000780
000780
000780
FFFF00
FFFF00
FFFF00
FFFE00
ENDCHAR

STARTCHAR zadikfinal
ENCODING 245
SWIDTH 570 0
DWIDTH 19 0
BBX 19 26 0 -6
BITMAP
3F8FE0
3F8FE0
3F8FE0
3F8FE0
0781E0
0781E0
0781C0
0F03C0
0F07C0
0F1F80
0FFF00
0FFF00
1FFC00
1FE000
1E0000
1E0000
1E0000
1E0000
1E0000
3C0000
3C0000
3C0000
3FC000
3FC000
3FC000
3FC000
ENDCHAR

STARTCHAR zadik
ENCODING 246
SWIDTH 600 0
DWIDTH 20 0
BBX 20 20 0 0
BITMAP
1FE3F0
1FE3F0
1FE3F0
1FE3F0
01E0F0
01E0F0
01E1E0
01E3E0
01FFC0
00FF80
00FF00
00F800
007C00
003C00
003E00
001E00
FFFE00
FFFE00
FFFC00
FFF800
ENDCHAR

STARTCHAR kof
ENCODING 247
SWIDTH 630 0
DWIDTH 21 0
BBX 21 27 0 -7
BITMAP
3FFFF8
3FFFF8
3FFFF8
3FFFF8
000078
000078
000078
3C00F0
3C01F0
3C03E0
3C07C0
3C0F80
3C1F00
3C3E00
787C00
78F800
78FF80
78FF80
78FF80
787F80
F00000
F00000
F00000
F00000
F00000
F00000
000000
ENDCHAR

STARTCHAR resh
ENCODING 248
SWIDTH 540 0
DWIDTH 18 0
BBX 17 20 1 0
BITMAP
7FFF00
7FFF80
7FFF80
7FFF80
000780
000780
000780
000F00
000F00
000F00
000F00
000F00
000F00
001E00
001E00
001E00
001E00
001E00
001E00
001E00
ENDCHAR

STARTCHAR shin
ENCODING 249
SWIDTH 750 0
DWIDTH 25 0
BBX 25 20 0 0
BITMAP
1F8F1F80
1F8F1F80
1F8F1F80
1F8F1F80
1E0F0780
1E0F0780
1E1E0780
3C1E0F00
3C1E0F00
3C1E0F00
3C1E0F00
3C1E0F00
783C1E00
783C1E00
783C3E00
7C3C7C00
7FFFFC00
3FFFF800
3FFFF000
0FFFC000
ENDCHAR

STARTCHAR taf
ENCODING 250
SWIDTH 660 0
DWIDTH 22 0
BBX 22 20 0 0
BITMAP
1FFFF8
1FFFFC
1FFFFC
1FFFFC
01E03C
01E03C
01E03C
01E078
03C078
03C078
03C078
03C078
03C078
0780F0
0780F0
0780F0
FF80F0
FF80F0
FF00F0
FE00F0
ENDCHAR
ENDFONT
